<svg width="73" height="73" viewBox="0 0 73 73" fill="none" xmlns="http://www.w3.org/2000/svg">
<path d="M58 36.5C58 48.3741 48.3741 58 36.5 58C24.6259 58 15 48.3741 15 36.5C15 31.1652 16.943 26.2841 20.16 22.5261C24.1033 17.9194 29.9607 15 36.5 15C43.0393 15 48.8967 17.9194 52.84 22.5261C56.057 26.2841 58 31.1652 58 36.5Z" fill="white"/>
<path d="M42.6571 36.0772L37.2095 40.4363L31.7619 36.0772M42.6571 36.0772L59 48.6313M42.6571 36.0772L59 23M31.7619 36.0772L15.4191 23M31.7619 36.0772L15 49" stroke="#232335" stroke-width="5"/>
</svg>
