<svg width="73" height="73" viewBox="0 0 73 73" fill="none" xmlns="http://www.w3.org/2000/svg">
<path fill-rule="evenodd" clip-rule="evenodd" d="M11.6434 34.9417C25.8706 28.7323 35.3574 24.6387 40.1043 22.6608C53.6574 17.0137 56.4736 16.0326 58.3091 16.0003C58.7128 15.9932 59.6155 16.0934 60.2002 16.5688C60.6939 16.97 60.8298 17.5122 60.8948 17.8927C60.9599 18.2732 61.0407 19.14 60.9765 19.8173C60.242 27.5477 57.064 46.3076 55.4473 54.9659C54.7632 58.6295 53.4161 59.8579 52.1121 59.9782C49.2779 60.2394 47.1259 58.1018 44.3809 56.2995C40.0858 53.4787 37.6591 51.723 33.4897 48.9707C28.6714 45.7898 31.795 44.0416 34.5409 41.1845C35.2596 40.4367 47.7465 29.0587 47.9882 28.0267C48.0185 27.8976 48.0465 27.4164 47.7612 27.1623C47.4758 26.9083 47.0546 26.9951 46.7508 27.0642C46.32 27.1622 39.4582 31.7056 26.1654 40.6943C24.2177 42.0342 22.4536 42.687 20.8729 42.6528C19.1305 42.615 15.7785 41.6657 13.2868 40.8543C10.2304 39.8591 7.80136 39.3329 8.01284 37.6427C8.12313 36.7623 9.33328 35.862 11.6434 34.9417Z" fill="white"/>
</svg>
