<svg width="72" height="72" viewBox="0 0 72 72" fill="none" xmlns="http://www.w3.org/2000/svg">
<path d="M60.8149 22.1298C61.1721 20.903 60.8149 20 59.0966 20H53.4108C51.9628 20 51.2968 20.7754 50.9396 21.6391C50.9396 21.6391 48.0436 28.8136 43.9507 33.4658C42.6281 34.8104 42.02 35.2423 41.2959 35.2423C40.9388 35.2423 40.3885 34.8104 40.3885 33.5836V22.1298C40.3885 20.6576 39.9831 20 38.7861 20H29.8472C28.9398 20 28.3991 20.687 28.3991 21.325C28.3991 22.7187 30.4457 23.0426 30.6581 26.9684V35.4876C30.6581 37.3523 30.3298 37.6959 29.6058 37.6959C27.6752 37.6959 22.9837 30.4919 20.2035 22.2476C19.6436 20.6478 19.0934 20 17.6357 20H11.95C10.3282 20 10 20.7754 10 21.6391C10 23.1702 11.9307 30.7766 18.9872 40.8269C23.6883 47.6872 30.3105 51.407 36.3342 51.407C39.9542 51.407 40.3982 50.5827 40.3982 49.1595C40.3982 42.6033 40.07 41.985 41.8848 41.985C42.7247 41.985 44.1726 42.4168 47.5513 45.7244C51.4125 49.6502 52.0497 51.407 54.212 51.407H59.8978C61.5195 51.407 62.3401 50.5827 61.8671 48.9535C60.7859 45.5281 53.4784 38.4811 53.1501 38.01C52.3103 36.9107 52.5517 36.42 53.1501 35.4386C53.1599 35.4287 60.1005 25.4962 60.8149 22.1298Z" fill="white"/>
</svg>
